<?xml version="1.0" encoding="UTF-8" standalone="no"?>
<!DOCTYPE svg PUBLIC "-//W3C//DTD SVG 1.1//EN"
 "http://www.w3.org/Graphics/SVG/1.1/DTD/svg11.dtd">
<!-- Generated by graphviz version 2.36.0 (20140111.2315)
 -->
<!-- Title: controllers_diagram Pages: 1 -->
<svg width="673pt" height="192pt"
 viewBox="0.00 0.00 673.00 192.00" xmlns="http://www.w3.org/2000/svg" xmlns:xlink="http://www.w3.org/1999/xlink">
<g id="graph0" class="graph" transform="scale(1 1) rotate(0) translate(4 188)">
<title>controllers_diagram</title>
<polygon fill="white" stroke="none" points="-4,4 -4,-188 669,-188 669,4 -4,4"/>
<!-- WelcomeController -->
<g id="node1" class="node"><title>WelcomeController</title>
<path fill="none" stroke="black" d="M11.5,-45.5C11.5,-45.5 112.5,-45.5 112.5,-45.5 118.5,-45.5 124.5,-51.5 124.5,-57.5 124.5,-57.5 124.5,-126.5 124.5,-126.5 124.5,-132.5 118.5,-138.5 112.5,-138.5 112.5,-138.5 11.5,-138.5 11.5,-138.5 5.5,-138.5 -0.5,-132.5 -0.5,-126.5 -0.5,-126.5 -0.5,-57.5 -0.5,-57.5 -0.5,-51.5 5.5,-45.5 11.5,-45.5"/>
<text text-anchor="middle" x="62" y="-123.3" font-family="Times,serif" font-size="14.00">WelcomeController</text>
<polyline fill="none" stroke="black" points="-0.5,-115.5 124.5,-115.5 "/>
<text text-anchor="start" x="7.5" y="-100.3" font-family="Times,serif" font-size="14.00">index</text>
<polyline fill="none" stroke="black" points="-0.5,-92.5 124.5,-92.5 "/>
<polyline fill="none" stroke="black" points="-0.5,-68.5 124.5,-68.5 "/>
<text text-anchor="start" x="7.5" y="-53.3" font-family="Times,serif" font-size="14.00">_layout</text>
</g>
<!-- GuestsController -->
<g id="node2" class="node"><title>GuestsController</title>
<path fill="none" stroke="black" d="M154.5,-30.5C154.5,-30.5 239.5,-30.5 239.5,-30.5 245.5,-30.5 251.5,-36.5 251.5,-42.5 251.5,-42.5 251.5,-141.5 251.5,-141.5 251.5,-147.5 245.5,-153.5 239.5,-153.5 239.5,-153.5 154.5,-153.5 154.5,-153.5 148.5,-153.5 142.5,-147.5 142.5,-141.5 142.5,-141.5 142.5,-42.5 142.5,-42.5 142.5,-36.5 148.5,-30.5 154.5,-30.5"/>
<text text-anchor="middle" x="197" y="-138.3" font-family="Times,serif" font-size="14.00">GuestsController</text>
<polyline fill="none" stroke="black" points="142.5,-130.5 251.5,-130.5 "/>
<text text-anchor="start" x="150.5" y="-115.3" font-family="Times,serif" font-size="14.00">create</text>
<text text-anchor="start" x="150.5" y="-100.3" font-family="Times,serif" font-size="14.00">index</text>
<text text-anchor="start" x="150.5" y="-85.3" font-family="Times,serif" font-size="14.00">update</text>
<polyline fill="none" stroke="black" points="142.5,-77.5 251.5,-77.5 "/>
<polyline fill="none" stroke="black" points="142.5,-53.5 251.5,-53.5 "/>
<text text-anchor="start" x="150.5" y="-38.3" font-family="Times,serif" font-size="14.00">_layout</text>
</g>
<!-- PartiesController -->
<g id="node3" class="node"><title>PartiesController</title>
<path fill="none" stroke="black" d="M281.5,-0.5C281.5,-0.5 366.5,-0.5 366.5,-0.5 372.5,-0.5 378.5,-6.5 378.5,-12.5 378.5,-12.5 378.5,-171.5 378.5,-171.5 378.5,-177.5 372.5,-183.5 366.5,-183.5 366.5,-183.5 281.5,-183.5 281.5,-183.5 275.5,-183.5 269.5,-177.5 269.5,-171.5 269.5,-171.5 269.5,-12.5 269.5,-12.5 269.5,-6.5 275.5,-0.5 281.5,-0.5"/>
<text text-anchor="middle" x="324" y="-168.3" font-family="Times,serif" font-size="14.00">PartiesController</text>
<polyline fill="none" stroke="black" points="269.5,-160.5 378.5,-160.5 "/>
<text text-anchor="start" x="277.5" y="-145.3" font-family="Times,serif" font-size="14.00">create</text>
<text text-anchor="start" x="277.5" y="-130.3" font-family="Times,serif" font-size="14.00">destroy</text>
<text text-anchor="start" x="277.5" y="-115.3" font-family="Times,serif" font-size="14.00">edit</text>
<text text-anchor="start" x="277.5" y="-100.3" font-family="Times,serif" font-size="14.00">index</text>
<text text-anchor="start" x="277.5" y="-85.3" font-family="Times,serif" font-size="14.00">new</text>
<text text-anchor="start" x="277.5" y="-70.3" font-family="Times,serif" font-size="14.00">show</text>
<text text-anchor="start" x="277.5" y="-55.3" font-family="Times,serif" font-size="14.00">update</text>
<polyline fill="none" stroke="black" points="269.5,-47.5 378.5,-47.5 "/>
<polyline fill="none" stroke="black" points="269.5,-23.5 378.5,-23.5 "/>
<text text-anchor="start" x="277.5" y="-8.3" font-family="Times,serif" font-size="14.00">_layout</text>
</g>
<!-- ApplicationController -->
<g id="node4" class="node"><title>ApplicationController</title>
<path fill="none" stroke="black" d="M409,-45C409,-45 521,-45 521,-45 527,-45 533,-51 533,-57 533,-57 533,-127 533,-127 533,-133 527,-139 521,-139 521,-139 409,-139 409,-139 403,-139 397,-133 397,-127 397,-127 397,-57 397,-57 397,-51 403,-45 409,-45"/>
<text text-anchor="middle" x="465" y="-123.8" font-family="Times,serif" font-size="14.00">ApplicationController</text>
<polyline fill="none" stroke="black" points="397,-116 533,-116 "/>
<polyline fill="none" stroke="black" points="397,-92 533,-92 "/>
<polyline fill="none" stroke="black" points="397,-68 533,-68 "/>
<text text-anchor="start" x="405" y="-52.8" font-family="Times,serif" font-size="14.00">_layout</text>
</g>
<!-- ProfilesController -->
<g id="node5" class="node"><title>ProfilesController</title>
<path fill="none" stroke="black" d="M563,-30.5C563,-30.5 653,-30.5 653,-30.5 659,-30.5 665,-36.5 665,-42.5 665,-42.5 665,-141.5 665,-141.5 665,-147.5 659,-153.5 653,-153.5 653,-153.5 563,-153.5 563,-153.5 557,-153.5 551,-147.5 551,-141.5 551,-141.5 551,-42.5 551,-42.5 551,-36.5 557,-30.5 563,-30.5"/>
<text text-anchor="middle" x="608" y="-138.3" font-family="Times,serif" font-size="14.00">ProfilesController</text>
<polyline fill="none" stroke="black" points="551,-130.5 665,-130.5 "/>
<text text-anchor="start" x="559" y="-115.3" font-family="Times,serif" font-size="14.00">edit</text>
<text text-anchor="start" x="559" y="-100.3" font-family="Times,serif" font-size="14.00">show</text>
<text text-anchor="start" x="559" y="-85.3" font-family="Times,serif" font-size="14.00">update</text>
<polyline fill="none" stroke="black" points="551,-77.5 665,-77.5 "/>
<polyline fill="none" stroke="black" points="551,-53.5 665,-53.5 "/>
<text text-anchor="start" x="559" y="-38.3" font-family="Times,serif" font-size="14.00">_layout</text>
</g>
</g>
</svg>
