<?xml version="1.0" encoding="UTF-8" standalone="no"?>
<!DOCTYPE svg PUBLIC "-//W3C//DTD SVG 1.1//EN"
 "http://www.w3.org/Graphics/SVG/1.1/DTD/svg11.dtd">
<!-- Generated by graphviz version 2.36.0 (20140111.2315)
 -->
<!-- Title: models_diagram Pages: 1 -->
<svg width="560pt" height="632pt"
 viewBox="0.00 0.00 560.00 632.00" xmlns="http://www.w3.org/2000/svg" xmlns:xlink="http://www.w3.org/1999/xlink">
<g id="graph0" class="graph" transform="scale(1 1) rotate(0) translate(4 628)">
<title>models_diagram</title>
<polygon fill="white" stroke="none" points="-4,4 -4,-628 556,-628 556,4 -4,4"/>
<!-- AdminUser -->
<g id="node1" class="node"><title>AdminUser</title>
<path fill="none" stroke="black" d="M12,-382C12,-382 188,-382 188,-382 194,-382 200,-388 200,-394 200,-394 200,-596 200,-596 200,-602 194,-608 188,-608 188,-608 12,-608 12,-608 6,-608 0,-602 0,-596 0,-596 0,-394 0,-394 0,-388 6,-382 12,-382"/>
<text text-anchor="middle" x="100" y="-592.8" font-family="Times,serif" font-size="14.00">AdminUser</text>
<polyline fill="none" stroke="black" points="0,-585 200,-585 "/>
<text text-anchor="start" x="8" y="-569.8" font-family="Times,serif" font-size="14.00">id :integer</text>
<text text-anchor="start" x="8" y="-554.8" font-family="Times,serif" font-size="14.00">email :string</text>
<text text-anchor="start" x="8" y="-539.8" font-family="Times,serif" font-size="14.00">encrypted_password :string</text>
<text text-anchor="start" x="8" y="-524.8" font-family="Times,serif" font-size="14.00">reset_password_token :string</text>
<text text-anchor="start" x="8" y="-509.8" font-family="Times,serif" font-size="14.00">reset_password_sent_at :datetime</text>
<text text-anchor="start" x="8" y="-494.8" font-family="Times,serif" font-size="14.00">remember_created_at :datetime</text>
<text text-anchor="start" x="8" y="-479.8" font-family="Times,serif" font-size="14.00">sign_in_count :integer</text>
<text text-anchor="start" x="8" y="-464.8" font-family="Times,serif" font-size="14.00">current_sign_in_at :datetime</text>
<text text-anchor="start" x="8" y="-449.8" font-family="Times,serif" font-size="14.00">last_sign_in_at :datetime</text>
<text text-anchor="start" x="8" y="-434.8" font-family="Times,serif" font-size="14.00">current_sign_in_ip :string</text>
<text text-anchor="start" x="8" y="-419.8" font-family="Times,serif" font-size="14.00">last_sign_in_ip :string</text>
<text text-anchor="start" x="8" y="-404.8" font-family="Times,serif" font-size="14.00">created_at :datetime</text>
<text text-anchor="start" x="8" y="-389.8" font-family="Times,serif" font-size="14.00">updated_at :datetime</text>
</g>
<!-- User -->
<g id="node2" class="node"><title>User</title>
<path fill="none" stroke="black" d="M230,-367C230,-367 406,-367 406,-367 412,-367 418,-373 418,-379 418,-379 418,-611 418,-611 418,-617 412,-623 406,-623 406,-623 230,-623 230,-623 224,-623 218,-617 218,-611 218,-611 218,-379 218,-379 218,-373 224,-367 230,-367"/>
<text text-anchor="middle" x="318" y="-607.8" font-family="Times,serif" font-size="14.00">User</text>
<polyline fill="none" stroke="black" points="218,-600 418,-600 "/>
<text text-anchor="start" x="226" y="-584.8" font-family="Times,serif" font-size="14.00">id :integer</text>
<text text-anchor="start" x="226" y="-569.8" font-family="Times,serif" font-size="14.00">email :string</text>
<text text-anchor="start" x="226" y="-554.8" font-family="Times,serif" font-size="14.00">encrypted_password :string</text>
<text text-anchor="start" x="226" y="-539.8" font-family="Times,serif" font-size="14.00">reset_password_token :string</text>
<text text-anchor="start" x="226" y="-524.8" font-family="Times,serif" font-size="14.00">reset_password_sent_at :datetime</text>
<text text-anchor="start" x="226" y="-509.8" font-family="Times,serif" font-size="14.00">remember_created_at :datetime</text>
<text text-anchor="start" x="226" y="-494.8" font-family="Times,serif" font-size="14.00">sign_in_count :integer</text>
<text text-anchor="start" x="226" y="-479.8" font-family="Times,serif" font-size="14.00">current_sign_in_at :datetime</text>
<text text-anchor="start" x="226" y="-464.8" font-family="Times,serif" font-size="14.00">last_sign_in_at :datetime</text>
<text text-anchor="start" x="226" y="-449.8" font-family="Times,serif" font-size="14.00">current_sign_in_ip :string</text>
<text text-anchor="start" x="226" y="-434.8" font-family="Times,serif" font-size="14.00">last_sign_in_ip :string</text>
<text text-anchor="start" x="226" y="-419.8" font-family="Times,serif" font-size="14.00">created_at :datetime</text>
<text text-anchor="start" x="226" y="-404.8" font-family="Times,serif" font-size="14.00">updated_at :datetime</text>
<text text-anchor="start" x="226" y="-389.8" font-family="Times,serif" font-size="14.00">provider :string</text>
<text text-anchor="start" x="226" y="-374.8" font-family="Times,serif" font-size="14.00">uid :integer</text>
</g>
<!-- Profile -->
<g id="node3" class="node"><title>Profile</title>
<path fill="none" stroke="black" d="M167.5,-161C167.5,-161 274.5,-161 274.5,-161 280.5,-161 286.5,-167 286.5,-173 286.5,-173 286.5,-315 286.5,-315 286.5,-321 280.5,-327 274.5,-327 274.5,-327 167.5,-327 167.5,-327 161.5,-327 155.5,-321 155.5,-315 155.5,-315 155.5,-173 155.5,-173 155.5,-167 161.5,-161 167.5,-161"/>
<text text-anchor="middle" x="221" y="-311.8" font-family="Times,serif" font-size="14.00">Profile</text>
<polyline fill="none" stroke="black" points="155.5,-304 286.5,-304 "/>
<text text-anchor="start" x="163.5" y="-288.8" font-family="Times,serif" font-size="14.00">id :integer</text>
<text text-anchor="start" x="163.5" y="-273.8" font-family="Times,serif" font-size="14.00">name :string</text>
<text text-anchor="start" x="163.5" y="-258.8" font-family="Times,serif" font-size="14.00">surname :string</text>
<text text-anchor="start" x="163.5" y="-243.8" font-family="Times,serif" font-size="14.00">photo :string</text>
<text text-anchor="start" x="163.5" y="-228.8" font-family="Times,serif" font-size="14.00">age :integer</text>
<text text-anchor="start" x="163.5" y="-213.8" font-family="Times,serif" font-size="14.00">contacts :text</text>
<text text-anchor="start" x="163.5" y="-198.8" font-family="Times,serif" font-size="14.00">user_id :integer</text>
<text text-anchor="start" x="163.5" y="-183.8" font-family="Times,serif" font-size="14.00">created_at :datetime</text>
<text text-anchor="start" x="163.5" y="-168.8" font-family="Times,serif" font-size="14.00">updated_at :datetime</text>
</g>
<!-- User&#45;&gt;Profile -->
<g id="edge1" class="edge"><title>User&#45;&gt;Profile</title>
<path fill="none" stroke="#d9f052" d="M265.54,-359.334C262.333,-351.101 259.149,-342.928 256.044,-334.96"/>
<ellipse fill="none" stroke="#d9f052" cx="267.053" cy="-363.22" rx="4.00001" ry="4.00001"/>
<ellipse fill="#d9f052" stroke="#d9f052" cx="254.421" cy="-330.792" rx="4.00001" ry="4.00001"/>
</g>
<!-- Party -->
<g id="node5" class="node"><title>Party</title>
<path fill="none" stroke="black" d="M427.5,-161C427.5,-161 540.5,-161 540.5,-161 546.5,-161 552.5,-167 552.5,-173 552.5,-173 552.5,-315 552.5,-315 552.5,-321 546.5,-327 540.5,-327 540.5,-327 427.5,-327 427.5,-327 421.5,-327 415.5,-321 415.5,-315 415.5,-315 415.5,-173 415.5,-173 415.5,-167 421.5,-161 427.5,-161"/>
<text text-anchor="middle" x="484" y="-311.8" font-family="Times,serif" font-size="14.00">Party</text>
<polyline fill="none" stroke="black" points="415.5,-304 552.5,-304 "/>
<text text-anchor="start" x="423.5" y="-288.8" font-family="Times,serif" font-size="14.00">id :integer</text>
<text text-anchor="start" x="423.5" y="-273.8" font-family="Times,serif" font-size="14.00">title :string</text>
<text text-anchor="start" x="423.5" y="-258.8" font-family="Times,serif" font-size="14.00">summary :text</text>
<text text-anchor="start" x="423.5" y="-243.8" font-family="Times,serif" font-size="14.00">coord_longitude :float</text>
<text text-anchor="start" x="423.5" y="-228.8" font-family="Times,serif" font-size="14.00">coord_latitude :float</text>
<text text-anchor="start" x="423.5" y="-213.8" font-family="Times,serif" font-size="14.00">host_id :integer</text>
<text text-anchor="start" x="423.5" y="-198.8" font-family="Times,serif" font-size="14.00">type_id :integer</text>
<text text-anchor="start" x="423.5" y="-183.8" font-family="Times,serif" font-size="14.00">created_at :datetime</text>
<text text-anchor="start" x="423.5" y="-168.8" font-family="Times,serif" font-size="14.00">updated_at :datetime</text>
</g>
<!-- User&#45;&gt;Party -->
<g id="edge2" class="edge"><title>User&#45;&gt;Party</title>
<path fill="none" stroke="#0962e4" d="M407.144,-360.285C412.735,-351.898 418.289,-343.567 423.703,-335.446"/>
<ellipse fill="none" stroke="#0962e4" cx="404.921" cy="-363.619" rx="4.00002" ry="4.00002"/>
<polygon fill="#0962e4" stroke="#0962e4" points="423.743,-335.385 433.034,-329.561 426.517,-331.225 429.29,-327.065 429.29,-327.065 429.29,-327.065 426.517,-331.225 425.546,-324.569 423.743,-335.385 423.743,-335.385"/>
</g>
<!-- Guest -->
<g id="node6" class="node"><title>Guest</title>
<path fill="none" stroke="black" d="M315.5,-0.5C315.5,-0.5 422.5,-0.5 422.5,-0.5 428.5,-0.5 434.5,-6.5 434.5,-12.5 434.5,-12.5 434.5,-109.5 434.5,-109.5 434.5,-115.5 428.5,-121.5 422.5,-121.5 422.5,-121.5 315.5,-121.5 315.5,-121.5 309.5,-121.5 303.5,-115.5 303.5,-109.5 303.5,-109.5 303.5,-12.5 303.5,-12.5 303.5,-6.5 309.5,-0.5 315.5,-0.5"/>
<text text-anchor="middle" x="369" y="-106.3" font-family="Times,serif" font-size="14.00">Guest</text>
<polyline fill="none" stroke="black" points="303.5,-98.5 434.5,-98.5 "/>
<text text-anchor="start" x="311.5" y="-83.3" font-family="Times,serif" font-size="14.00">id :integer</text>
<text text-anchor="start" x="311.5" y="-68.3" font-family="Times,serif" font-size="14.00">party_id :integer</text>
<text text-anchor="start" x="311.5" y="-53.3" font-family="Times,serif" font-size="14.00">user_id :integer</text>
<text text-anchor="start" x="311.5" y="-38.3" font-family="Times,serif" font-size="14.00">accepted :boolean</text>
<text text-anchor="start" x="311.5" y="-23.3" font-family="Times,serif" font-size="14.00">created_at :datetime</text>
<text text-anchor="start" x="311.5" y="-8.3" font-family="Times,serif" font-size="14.00">updated_at :datetime</text>
</g>
<!-- User&#45;&gt;Guest -->
<g id="edge3" class="edge"><title>User&#45;&gt;Guest</title>
<path fill="none" stroke="#6fa118" d="M314.697,-358.633C315.598,-297.439 320.021,-224.535 333,-160 334.916,-150.471 337.61,-140.634 340.67,-131.036"/>
<ellipse fill="none" stroke="#6fa118" cx="314.646" cy="-362.803" rx="4" ry="4"/>
<polygon fill="#6fa118" stroke="#6fa118" points="340.674,-131.025 348.106,-122.962 342.256,-126.281 343.838,-121.538 343.838,-121.538 343.838,-121.538 342.256,-126.281 339.569,-120.115 340.674,-131.025 340.674,-131.025"/>
<text text-anchor="middle" x="370" y="-240.3" font-family="Times,serif" font-size="14.00">participations</text>
</g>
<!-- Type -->
<g id="node4" class="node"><title>Type</title>
<path fill="none" stroke="black" d="M448,-457C448,-457 528,-457 528,-457 534,-457 540,-463 540,-469 540,-469 540,-521 540,-521 540,-527 534,-533 528,-533 528,-533 448,-533 448,-533 442,-533 436,-527 436,-521 436,-521 436,-469 436,-469 436,-463 442,-457 448,-457"/>
<text text-anchor="middle" x="488" y="-517.8" font-family="Times,serif" font-size="14.00">Type</text>
<polyline fill="none" stroke="black" points="436,-510 540,-510 "/>
<text text-anchor="start" x="444" y="-494.8" font-family="Times,serif" font-size="14.00">id :integer</text>
<text text-anchor="start" x="444" y="-479.8" font-family="Times,serif" font-size="14.00">title :string</text>
<text text-anchor="start" x="444" y="-464.8" font-family="Times,serif" font-size="14.00">description :text</text>
</g>
<!-- Type&#45;&gt;Party -->
<g id="edge4" class="edge"><title>Type&#45;&gt;Party</title>
<path fill="none" stroke="#35484d" d="M487.272,-448.677C486.772,-417.572 486.092,-375.197 485.48,-337.153"/>
<ellipse fill="none" stroke="#35484d" cx="487.341" cy="-452.992" rx="4" ry="4"/>
<polygon fill="#35484d" stroke="#35484d" points="485.479,-337.067 489.818,-326.996 485.399,-332.068 485.318,-327.068 485.318,-327.068 485.318,-327.068 485.399,-332.068 480.819,-327.141 485.479,-337.067 485.479,-337.067"/>
</g>
<!-- Party&#45;&gt;Guest -->
<g id="edge5" class="edge"><title>Party&#45;&gt;Guest</title>
<path fill="none" stroke="#8335b5" d="M427.522,-154.109C422.371,-146.001 417.208,-137.875 412.2,-129.993"/>
<ellipse fill="none" stroke="#8335b5" cx="429.738" cy="-157.597" rx="4.00002" ry="4.00002"/>
<polygon fill="#8335b5" stroke="#8335b5" points="412.197,-129.989 410.633,-119.135 409.516,-125.768 406.835,-121.548 406.835,-121.548 406.835,-121.548 409.516,-125.768 403.036,-123.961 412.197,-129.989 412.197,-129.989"/>
</g>
</g>
</svg>
